<svg width="606" height="852" viewBox="0 0 606 852" xmlns="http://www.w3.org/2000/svg">
  <defs>
    <linearGradient id="bg" x1="0%" y1="0%" x2="0%" y2="100%">
      <stop offset="0%" stop-color="#07111f" />
      <stop offset="100%" stop-color="#122845" />
    </linearGradient>
    <radialGradient id="idolGlow" cx="50%" cy="32%" r="36%">
      <stop offset="0%" stop-color="#fff4c7" />
      <stop offset="40%" stop-color="#f2a8ff" />
      <stop offset="100%" stop-color="#7cefff" stop-opacity="0.08" />
    </radialGradient>
  </defs>

  <rect width="606" height="852" fill="url(#bg)" />

  <circle cx="303" cy="274" r="152" fill="url(#idolGlow)" opacity="0.4" />
  <ellipse cx="303" cy="274" rx="156" ry="90" fill="none" stroke="#f0b6ff" stroke-width="8" opacity="0.75" />
  <ellipse cx="303" cy="274" rx="196" ry="118" fill="none" stroke="#86efff" stroke-width="4" opacity="0.3" />

  <path d="M 243 470 C 243 420, 278 392, 303 392 C 328 392, 363 420, 363 470 L 387 606 L 219 606 Z"
        fill="#f2a8ff" opacity="0.9" />
  <circle cx="303" cy="346" r="54" fill="#fff0cf" opacity="0.95" />
  <circle cx="287" cy="338" r="6" fill="#6b567b" />
  <circle cx="319" cy="338" r="6" fill="#6b567b" />
  <path d="M 284 366 C 296 376, 310 376, 322 366" fill="none" stroke="#6b567b" stroke-width="5" stroke-linecap="round" />

  <path d="M 176 538 C 230 490, 268 474, 303 474" fill="none" stroke="#86efff" stroke-width="12" stroke-linecap="round" />
  <path d="M 430 538 C 376 490, 338 474, 303 474" fill="none" stroke="#86efff" stroke-width="12" stroke-linecap="round" />
  <path d="M 176 538 L 228 538" stroke="#fff2d4" stroke-width="10" stroke-linecap="round" />
  <path d="M 378 538 L 430 538" stroke="#fff2d4" stroke-width="10" stroke-linecap="round" />

  <circle cx="120" cy="174" r="8" fill="#d2e9f6" opacity="0.82" />
  <circle cx="506" cy="176" r="8" fill="#d2e9f6" opacity="0.82" />
  <circle cx="102" cy="456" r="6" fill="#d2e9f6" opacity="0.62" />
  <circle cx="516" cy="446" r="6" fill="#d2e9f6" opacity="0.62" />
  <circle cx="170" cy="716" r="8" fill="#d2e9f6" opacity="0.72" />
  <circle cx="442" cy="724" r="9" fill="#d2e9f6" opacity="0.72" />
</svg>
