<svg width="606" height="852" viewBox="0 0 606 852" xmlns="http://www.w3.org/2000/svg">
  <defs>
    <linearGradient id="bg" x1="0%" y1="0%" x2="0%" y2="100%">
      <stop offset="0%" stop-color="#07111f" />
      <stop offset="100%" stop-color="#10243d" />
    </linearGradient>
    <radialGradient id="portal" cx="50%" cy="40%" r="40%">
      <stop offset="0%" stop-color="#fff8d8" />
      <stop offset="55%" stop-color="#8fefff" />
      <stop offset="100%" stop-color="#8fefff" stop-opacity="0.05" />
    </radialGradient>
    <filter id="soft" x="-20%" y="-20%" width="140%" height="140%">
      <feGaussianBlur stdDeviation="10" />
    </filter>
  </defs>

  <rect width="606" height="852" fill="url(#bg)" />

  <circle cx="303" cy="300" r="174" fill="url(#portal)" opacity="0.22" filter="url(#soft)" />
  <ellipse cx="303" cy="300" rx="178" ry="104" fill="none" stroke="#8fefff" stroke-width="10" opacity="0.7" />
  <ellipse cx="303" cy="300" rx="136" ry="154" fill="none" stroke="#ffe18b" stroke-width="7" opacity="0.66" />
  <ellipse cx="303" cy="300" rx="214" ry="132" fill="none" stroke="#b0f9ff" stroke-width="3" opacity="0.24" />

  <path d="M 223 508 L 303 428 L 383 508 L 303 588 Z" fill="#8fefff" opacity="0.9" />
  <path d="M 223 508 L 303 468 L 383 508 L 303 548 Z" fill="#d6ffff" opacity="0.38" />
  <circle cx="303" cy="508" r="18" fill="#ffffff" />
  <path d="M 303 606 C 275 582, 249 556, 223 508" fill="none" stroke="#8ff7ea" stroke-width="12" stroke-linecap="round" />
  <path d="M 303 606 C 331 582, 357 556, 383 508" fill="none" stroke="#8ff7ea" stroke-width="12" stroke-linecap="round" />

  <path d="M 303 210 L 303 390" stroke="#ffffff" stroke-width="10" stroke-linecap="round" opacity="0.85" />
  <path d="M 213 300 L 393 300" stroke="#ffffff" stroke-width="10" stroke-linecap="round" opacity="0.85" />

  <circle cx="156" cy="196" r="8" fill="#d2e9f6" opacity="0.82" />
  <circle cx="452" cy="174" r="9" fill="#d2e9f6" opacity="0.82" />
  <circle cx="108" cy="436" r="6" fill="#d2e9f6" opacity="0.62" />
  <circle cx="500" cy="438" r="6" fill="#d2e9f6" opacity="0.62" />
  <circle cx="188" cy="704" r="8" fill="#d2e9f6" opacity="0.72" />
  <circle cx="430" cy="736" r="9" fill="#d2e9f6" opacity="0.72" />
</svg>
