<svg width="606" height="852" viewBox="0 0 606 852" xmlns="http://www.w3.org/2000/svg">
  <defs>
    <linearGradient id="bg" x1="0%" y1="0%" x2="0%" y2="100%">
      <stop offset="0%" stop-color="#07111f" />
      <stop offset="100%" stop-color="#112741" />
    </linearGradient>
    <radialGradient id="coreGlow" cx="50%" cy="36%" r="34%">
      <stop offset="0%" stop-color="#ffffff" />
      <stop offset="42%" stop-color="#fff1b1" />
      <stop offset="100%" stop-color="#8fefff" stop-opacity="0.08" />
    </radialGradient>
  </defs>

  <rect width="606" height="852" fill="url(#bg)" />

  <circle cx="303" cy="284" r="148" fill="url(#coreGlow)" opacity="0.36" />
  <circle cx="303" cy="284" r="68" fill="#fff8df" />
  <circle cx="303" cy="284" r="30" fill="#ffffff" />
  <ellipse cx="303" cy="284" rx="144" ry="84" fill="none" stroke="#f1d77c" stroke-width="7" opacity="0.72" />
  <ellipse cx="303" cy="284" rx="184" ry="114" fill="none" stroke="#8fefff" stroke-width="4" opacity="0.3" />

  <path d="M 220 520 C 194 480, 192 430, 236 404 C 280 378, 348 390, 364 454 C 416 450, 446 476, 444 520 C 442 564, 406 594, 350 598 C 332 628, 302 654, 258 650 C 214 646, 190 610, 220 520 Z"
        fill="#f4c86a" opacity="0.92" />
  <path d="M 252 474 C 286 444, 334 444, 356 492" fill="none" stroke="#fff2cf" stroke-width="12" stroke-linecap="round" opacity="0.85" />
  <path d="M 302 428 L 336 404 L 326 446" fill="none" stroke="#fff2cf" stroke-width="10" stroke-linecap="round" stroke-linejoin="round" />
  <path d="M 360 540 L 420 586" stroke="#8ff7ea" stroke-width="14" stroke-linecap="round" />
  <path d="M 228 566 C 268 616, 334 634, 396 610" fill="none" stroke="#8ff7ea" stroke-width="10" stroke-linecap="round" />

  <circle cx="120" cy="170" r="8" fill="#d2e9f6" opacity="0.8" />
  <circle cx="510" cy="176" r="8" fill="#d2e9f6" opacity="0.8" />
  <circle cx="100" cy="440" r="6" fill="#d2e9f6" opacity="0.6" />
  <circle cx="516" cy="432" r="6" fill="#d2e9f6" opacity="0.6" />
  <circle cx="176" cy="726" r="8" fill="#d2e9f6" opacity="0.72" />
  <circle cx="436" cy="712" r="9" fill="#d2e9f6" opacity="0.72" />
</svg>
