<svg width="606" height="852" viewBox="0 0 606 852" xmlns="http://www.w3.org/2000/svg">
  <defs>
    <linearGradient id="bg" x1="0%" y1="0%" x2="0%" y2="100%">
      <stop offset="0%" stop-color="#07111f" />
      <stop offset="100%" stop-color="#112741" />
    </linearGradient>
    <radialGradient id="darkCore" cx="30%" cy="34%" r="28%">
      <stop offset="0%" stop-color="#151a2e" />
      <stop offset="60%" stop-color="#28365a" />
      <stop offset="100%" stop-color="#88dfff" stop-opacity="0.08" />
    </radialGradient>
    <radialGradient id="lightCore" cx="72%" cy="34%" r="28%">
      <stop offset="0%" stop-color="#ffffff" />
      <stop offset="42%" stop-color="#fff2b4" />
      <stop offset="100%" stop-color="#88f2ff" stop-opacity="0.08" />
    </radialGradient>
  </defs>

  <rect width="606" height="852" fill="url(#bg)" />

  <circle cx="190" cy="286" r="138" fill="url(#darkCore)" opacity="0.42" />
  <circle cx="190" cy="286" r="66" fill="#11172a" />
  <circle cx="190" cy="286" r="30" fill="#080c17" />
  <ellipse cx="190" cy="286" rx="132" ry="78" fill="none" stroke="#5e7bb4" stroke-width="6" opacity="0.55" />

  <circle cx="420" cy="286" r="138" fill="url(#lightCore)" opacity="0.42" />
  <circle cx="420" cy="286" r="66" fill="#fff8e0" />
  <circle cx="420" cy="286" r="30" fill="#ffffff" />
  <ellipse cx="420" cy="286" rx="132" ry="78" fill="none" stroke="#f0d67b" stroke-width="6" opacity="0.7" />

  <path d="M 236 286 L 348 286" stroke="#9befff" stroke-width="22" stroke-linecap="round" opacity="0.82" />
  <path d="M 314 240 L 392 286 L 314 332" fill="none" stroke="#9befff" stroke-width="16" stroke-linecap="round" stroke-linejoin="round" />

  <path d="M 232 566 C 260 526, 290 504, 303 504 C 316 504, 346 526, 374 566 C 343 607, 322 630, 303 654 C 284 630, 263 607, 232 566 Z"
        fill="#8ff7ea" opacity="0.82" />
  <path d="M 253 566 L 353 566" stroke="#fbfffd" stroke-width="14" stroke-linecap="round" />
  <path d="M 303 516 L 303 616" stroke="#fbfffd" stroke-width="14" stroke-linecap="round" />

  <circle cx="120" cy="170" r="8" fill="#d2e9f6" opacity="0.8" />
  <circle cx="510" cy="176" r="8" fill="#d2e9f6" opacity="0.8" />
  <circle cx="100" cy="440" r="6" fill="#d2e9f6" opacity="0.6" />
  <circle cx="516" cy="432" r="6" fill="#d2e9f6" opacity="0.6" />
  <circle cx="176" cy="726" r="8" fill="#d2e9f6" opacity="0.72" />
  <circle cx="436" cy="712" r="9" fill="#d2e9f6" opacity="0.72" />
</svg>
