<svg width="606" height="852" viewBox="0 0 606 852" xmlns="http://www.w3.org/2000/svg">
  <defs>
    <linearGradient id="bg" x1="0%" y1="0%" x2="0%" y2="100%">
      <stop offset="0%" stop-color="#07111f" />
      <stop offset="100%" stop-color="#122845" />
    </linearGradient>
    <radialGradient id="core" cx="50%" cy="42%" r="36%">
      <stop offset="0%" stop-color="#fffaf0" />
      <stop offset="40%" stop-color="#ffe596" />
      <stop offset="100%" stop-color="#8defff" stop-opacity="0.08" />
    </radialGradient>
    <filter id="blur" x="-20%" y="-20%" width="140%" height="140%">
      <feGaussianBlur stdDeviation="9" />
    </filter>
  </defs>

  <rect width="606" height="852" fill="url(#bg)" />

  <circle cx="303" cy="318" r="156" fill="url(#core)" opacity="0.28" filter="url(#blur)" />
  <circle cx="303" cy="318" r="64" fill="#fff9e0" opacity="0.92" />
  <circle cx="303" cy="318" r="28" fill="#ffffff" />

  <ellipse cx="303" cy="318" rx="182" ry="90" fill="none" stroke="#8fefff" stroke-width="8" opacity="0.55" />
  <ellipse cx="303" cy="318" rx="142" ry="132" fill="none" stroke="#ffe48e" stroke-width="6" opacity="0.6" />
  <ellipse cx="303" cy="318" rx="214" ry="156" fill="none" stroke="#a3f7ff" stroke-width="3" opacity="0.22" />

  <circle cx="202" cy="276" r="20" fill="#8fefff" opacity="0.78" />
  <circle cx="404" cy="360" r="20" fill="#ffe48e" opacity="0.78" />
  <circle cx="246" cy="400" r="12" fill="#ffe48e" opacity="0.76" />
  <circle cx="368" cy="236" r="12" fill="#8fefff" opacity="0.76" />

  <path d="M 206 620 L 400 620" stroke="#f8fffd" stroke-width="20" stroke-linecap="round" />
  <path d="M 303 524 L 303 716" stroke="#f8fffd" stroke-width="20" stroke-linecap="round" />
  <path d="M 244 679 L 303 738 L 362 679" fill="none" stroke="#8ff7ea" stroke-width="16" stroke-linecap="round" stroke-linejoin="round" />

  <circle cx="134" cy="188" r="7" fill="#d2e9f6" opacity="0.8" />
  <circle cx="478" cy="170" r="8" fill="#d2e9f6" opacity="0.8" />
  <circle cx="110" cy="438" r="6" fill="#d2e9f6" opacity="0.65" />
  <circle cx="494" cy="462" r="6" fill="#d2e9f6" opacity="0.65" />
  <circle cx="186" cy="756" r="8" fill="#d2e9f6" opacity="0.75" />
  <circle cx="436" cy="718" r="9" fill="#d2e9f6" opacity="0.75" />
</svg>
