<svg width="606" height="852" viewBox="0 0 606 852" xmlns="http://www.w3.org/2000/svg">
  <defs>
    <linearGradient id="bg" x1="0%" y1="0%" x2="0%" y2="100%">
      <stop offset="0%" stop-color="#07111f" />
      <stop offset="100%" stop-color="#0f223d" />
    </linearGradient>
    <radialGradient id="coreGlow" cx="50%" cy="44%" r="38%">
      <stop offset="0%" stop-color="#fffef5" />
      <stop offset="35%" stop-color="#fff4ba" />
      <stop offset="70%" stop-color="#f6d76a" />
      <stop offset="100%" stop-color="#d6a93d" stop-opacity="0.2" />
    </radialGradient>
    <radialGradient id="healGlow" cx="50%" cy="70%" r="40%">
      <stop offset="0%" stop-color="#b8fff0" stop-opacity="0.9" />
      <stop offset="100%" stop-color="#6fe0d4" stop-opacity="0" />
    </radialGradient>
    <filter id="soft" x="-20%" y="-20%" width="140%" height="140%">
      <feGaussianBlur stdDeviation="8" />
    </filter>
  </defs>

  <rect width="606" height="852" fill="url(#bg)" />

  <circle cx="303" cy="300" r="168" fill="url(#coreGlow)" opacity="0.18" filter="url(#soft)" />
  <circle cx="303" cy="300" r="116" fill="url(#coreGlow)" opacity="0.34" />
  <circle cx="303" cy="300" r="68" fill="#fff9dc" opacity="0.95" />
  <circle cx="303" cy="300" r="38" fill="#ffffff" />

  <ellipse cx="303" cy="300" rx="160" ry="92" fill="none" stroke="#ffe48a" stroke-width="8" opacity="0.65" />
  <ellipse cx="303" cy="300" rx="192" ry="122" fill="none" stroke="#a9f7ff" stroke-width="5" opacity="0.38" />
  <ellipse cx="303" cy="300" rx="222" ry="150" fill="none" stroke="#f7f2be" stroke-width="3" opacity="0.24" />

  <path d="M 98 444 C 146 354, 216 318, 286 314" fill="none" stroke="#8ef5ff" stroke-width="18" stroke-linecap="round" opacity="0.75" />
  <path d="M 508 444 C 460 354, 390 318, 320 314" fill="none" stroke="#8ef5ff" stroke-width="18" stroke-linecap="round" opacity="0.75" />
  <path d="M 128 488 C 184 384, 248 342, 300 336" fill="none" stroke="#fff2a8" stroke-width="9" stroke-linecap="round" opacity="0.85" />
  <path d="M 478 488 C 422 384, 358 342, 306 336" fill="none" stroke="#fff2a8" stroke-width="9" stroke-linecap="round" opacity="0.85" />

  <circle cx="303" cy="592" r="146" fill="url(#healGlow)" />
  <path d="M 236 612 C 263 568, 289 549, 303 541 C 317 549, 343 568, 370 612 C 340 645, 321 661, 303 679 C 285 661, 266 645, 236 612 Z"
        fill="#8ff7ea" opacity="0.78" />
  <path d="M 265 592 L 341 592" stroke="#f9fffd" stroke-width="14" stroke-linecap="round" />
  <path d="M 303 554 L 303 630" stroke="#f9fffd" stroke-width="14" stroke-linecap="round" />

  <circle cx="168" cy="200" r="8" fill="#d9fbff" opacity="0.8" />
  <circle cx="460" cy="176" r="7" fill="#fff0ab" opacity="0.72" />
  <circle cx="438" cy="620" r="10" fill="#b0fff1" opacity="0.7" />
  <circle cx="172" cy="650" r="9" fill="#fff0ab" opacity="0.62" />
  <circle cx="110" cy="328" r="6" fill="#d9fbff" opacity="0.62" />
  <circle cx="494" cy="330" r="6" fill="#d9fbff" opacity="0.62" />
</svg>
