<svg width="606" height="852" viewBox="0 0 606 852" xmlns="http://www.w3.org/2000/svg">
  <defs>
    <linearGradient id="bg" x1="0%" y1="0%" x2="0%" y2="100%">
      <stop offset="0%" stop-color="#07111f" />
      <stop offset="100%" stop-color="#112741" />
    </linearGradient>
    <radialGradient id="hole" cx="34%" cy="34%" r="30%">
      <stop offset="0%" stop-color="#ffffff" />
      <stop offset="40%" stop-color="#fff1b0" />
      <stop offset="100%" stop-color="#8fefff" stop-opacity="0.08" />
    </radialGradient>
    <filter id="blur" x="-20%" y="-20%" width="140%" height="140%">
      <feGaussianBlur stdDeviation="9" />
    </filter>
  </defs>

  <rect width="606" height="852" fill="url(#bg)" />

  <circle cx="212" cy="276" r="154" fill="url(#hole)" opacity="0.25" filter="url(#blur)" />
  <circle cx="212" cy="276" r="56" fill="#fff8df" opacity="0.95" />
  <circle cx="212" cy="276" r="24" fill="#ffffff" />

  <path d="M 244 270 L 470 214 L 508 274 L 470 334 L 244 278 Z" fill="#8fefff" opacity="0.86" />
  <path d="M 238 280 L 432 280" stroke="#ffffff" stroke-width="18" stroke-linecap="round" opacity="0.92" />
  <path d="M 288 236 L 458 194" stroke="#ffe38a" stroke-width="9" stroke-linecap="round" opacity="0.84" />
  <path d="M 288 324 L 458 366" stroke="#ffe38a" stroke-width="9" stroke-linecap="round" opacity="0.84" />
  <path d="M 418 280 L 508 280" stroke="#d9ffff" stroke-width="16" stroke-linecap="round" opacity="0.84" />

  <ellipse cx="212" cy="276" rx="136" ry="84" fill="none" stroke="#ffe38a" stroke-width="7" opacity="0.68" />
  <ellipse cx="212" cy="276" rx="174" ry="114" fill="none" stroke="#8fefff" stroke-width="4" opacity="0.3" />

  <path d="M 356 594 L 430 520 L 430 560 L 500 560 L 500 628 L 430 628 L 430 668 Z" fill="#8ff7ea" opacity="0.86" />

  <circle cx="120" cy="176" r="8" fill="#d2e9f6" opacity="0.8" />
  <circle cx="520" cy="180" r="8" fill="#d2e9f6" opacity="0.8" />
  <circle cx="118" cy="460" r="6" fill="#d2e9f6" opacity="0.62" />
  <circle cx="526" cy="452" r="6" fill="#d2e9f6" opacity="0.62" />
  <circle cx="186" cy="734" r="8" fill="#d2e9f6" opacity="0.72" />
  <circle cx="454" cy="720" r="9" fill="#d2e9f6" opacity="0.72" />
</svg>
